<svg xmlns="http://www.w3.org/2000/svg" xmlns:xlink="http://www.w3.org/1999/xlink" width="500" zoomAndPan="magnify" viewBox="0 0 375 374.999991" height="500" preserveAspectRatio="xMidYMid meet" version="1.0"><defs><clipPath id="630090ed6a"><path d="M 65.796875 0 L 309.546875 0 L 309.546875 374.871094 L 65.796875 374.871094 Z M 65.796875 0 " clip-rule="nonzero"/></clipPath></defs><g clip-path="url(#630090ed6a)"><path fill="#231f20" d="M 298.921875 98.496094 L 307.546875 101.488281 C 308.796875 97.878906 309.515625 94.035156 309.519531 90.074219 C 309.515625 86.511719 308.929688 82.828125 307.433594 79.265625 C 306.277344 76.53125 305.613281 74.601562 305.167969 72.714844 C 304.730469 70.828125 304.472656 68.859375 304.351562 65.925781 C 304.269531 63.859375 304.027344 61.816406 303.488281 59.761719 C 303.082031 58.226562 302.5 56.679688 301.695312 55.214844 C 300.496094 53.007812 298.785156 51.027344 296.867188 49.523438 C 294.949219 48.003906 292.882812 46.914062 290.757812 46.050781 C 288.558594 45.152344 286.9375 44.289062 285.335938 43.242188 C 283.734375 42.195312 282.113281 40.910156 280.105469 39.140625 C 278.574219 37.792969 276.96875 36.722656 275.453125 35.894531 C 273.164062 34.648438 271.132812 33.925781 269.539062 33.332031 C 267.929688 32.738281 266.75 32.28125 265.761719 31.746094 L 265.433594 31.574219 L 265.757812 31.742188 C 265.546875 31.625 265.449219 31.5625 265.167969 31.25 C 264.96875 31.019531 264.691406 30.644531 264.339844 30.078125 C 263.8125 29.242188 263.152344 27.984375 262.222656 26.417969 C 261.28125 24.863281 260.039062 22.960938 258.140625 21.101562 C 255.242188 18.277344 251.949219 16.34375 248.746094 14.988281 C 246.339844 13.972656 243.964844 13.257812 241.6875 12.683594 C 238.273438 11.832031 235.058594 11.277344 232.21875 10.691406 C 229.375 10.113281 226.921875 9.5 225.066406 8.753906 C 221.421875 7.3125 217.597656 5.859375 213.445312 4.742188 C 209.296875 3.621094 204.800781 2.847656 199.96875 2.847656 L 199.957031 2.847656 C 199.914062 2.847656 199.789062 2.847656 199.570312 2.855469 L 199.882812 11.957031 L 199.882812 2.847656 C 199.816406 2.847656 199.726562 2.847656 199.625 2.847656 C 197.328125 2.847656 195.265625 2.761719 193.328125 2.550781 C 191.394531 2.335938 189.585938 2.003906 187.726562 1.496094 C 186.269531 1.09375 184.8125 0.75 183.320312 0.511719 C 181.824219 0.269531 180.292969 0.128906 178.730469 0.128906 C 176.828125 0.128906 174.90625 0.339844 173.042969 0.742188 C 171.167969 1.148438 169.351562 1.722656 167.523438 2.429688 C 166.664062 2.757812 165.667969 3 164.460938 3.160156 C 163.257812 3.316406 161.855469 3.386719 160.277344 3.386719 C 157.75 3.390625 154.796875 3.207031 151.496094 3.199219 C 150.433594 3.199219 149.335938 3.222656 148.203125 3.28125 L 148.210938 3.28125 C 145.765625 3.417969 143.519531 3.9375 141.5 4.628906 C 138.46875 5.675781 135.914062 7.078125 133.667969 8.4375 C 131.425781 9.804688 129.480469 11.15625 127.859375 12.191406 C 122.867188 15.390625 117.925781 18.050781 112.191406 21.015625 L 112.1875 21.015625 C 106.265625 24.089844 100.816406 28.261719 96.148438 33.015625 C 93.816406 35.402344 91.683594 37.933594 89.808594 40.589844 C 87.9375 43.242188 86.320312 46.011719 85.054688 48.914062 C 84.449219 50.335938 83.359375 52.101562 81.960938 54.34375 C 80.585938 56.585938 78.902344 59.328125 77.625 62.832031 C 77.222656 63.945312 76.644531 65.316406 76.011719 66.574219 C 75.390625 67.832031 74.679688 68.988281 74.195312 69.613281 L 74.199219 69.605469 C 74.125 69.707031 74.046875 69.800781 73.972656 69.890625 L 73.914062 69.960938 L 73.941406 69.925781 L 73.824219 70.054688 L 73.808594 70.066406 L 73.6875 70.195312 L 80.238281 76.535156 L 73.804688 70.074219 L 74.867188 71.136719 L 73.851562 70.03125 L 73.804688 70.074219 L 74.867188 71.136719 L 73.851562 70.03125 L 73.804688 70.070312 L 73.625 70.222656 L 79.644531 77.078125 L 73.851562 70.039062 L 75.734375 72.324219 L 74.132812 69.835938 C 73.960938 69.945312 73.878906 70.015625 73.851562 70.039062 L 75.734375 72.324219 L 74.132812 69.835938 L 74.023438 69.90625 L 74.148438 69.828125 C 72.636719 70.789062 71.292969 71.980469 70.183594 73.308594 C 68.511719 75.300781 67.390625 77.554688 66.707031 79.796875 C 66.023438 82.046875 65.757812 84.289062 65.753906 86.484375 C 65.757812 89.25 66.179688 91.953125 66.910156 94.578125 C 68.011719 98.515625 69.796875 102.300781 72.199219 105.765625 C 74.613281 109.226562 77.65625 112.386719 81.464844 114.8125 C 83.367188 116.023438 85.371094 116.953125 87.40625 117.574219 C 89.441406 118.199219 91.488281 118.507812 93.4375 118.558594 L 93.695312 109.453125 L 84.621094 110.449219 C 88.199219 142.953125 90.859375 163.101562 92.976562 177.71875 C 94.558594 188.683594 95.835938 196.511719 96.953125 204.003906 C 97.789062 209.632812 98.539062 215.078125 99.28125 221.65625 C 101.511719 241.355469 103.699219 271.394531 107.664062 344.648438 L 116.78125 344.160156 L 107.71875 343.046875 C 107.675781 343.386719 107.640625 343.84375 107.640625 344.398438 C 107.640625 345.429688 107.765625 346.816406 108.214844 348.417969 C 108.601562 349.820312 109.234375 351.375 110.183594 352.960938 C 111.835938 355.746094 114.429688 358.566406 118.09375 361.09375 C 120.839844 363 124.199219 364.765625 128.316406 366.367188 C 134.5 368.769531 142.414062 370.800781 152.789062 372.269531 C 163.171875 373.730469 176.023438 374.617188 192.085938 374.617188 C 210.464844 374.613281 224.605469 373.457031 235.640625 371.597656 C 243.917969 370.199219 250.449219 368.410156 255.710938 366.335938 C 259.652344 364.785156 262.886719 363.074219 265.550781 361.222656 C 269.542969 358.46875 272.273438 355.328125 273.882812 352.265625 C 274.691406 350.738281 275.214844 349.253906 275.523438 347.929688 C 275.832031 346.601562 275.925781 345.4375 275.925781 344.511719 C 275.925781 343.789062 275.867188 343.210938 275.808594 342.796875 L 266.78125 344.160156 L 275.902344 344.519531 C 277.609375 301.699219 279.011719 273.664062 280.335938 253.839844 C 281.335938 238.96875 282.285156 228.746094 283.289062 220.328125 C 284.042969 214.011719 284.828125 208.695312 285.703125 203.113281 C 287.011719 194.757812 288.527344 185.792969 290.359375 172.460938 C 292.183594 159.125 294.324219 141.4375 296.914062 115.433594 L 287.835938 114.53125 L 295.0625 120.101562 C 296.699219 117.964844 298.851562 115.675781 301.175781 112.738281 C 302.332031 111.265625 303.515625 109.625 304.617188 107.757812 C 305.722656 105.898438 306.738281 103.800781 307.546875 101.484375 L 290.296875 95.507812 C 289.925781 96.574219 289.464844 97.535156 288.890625 98.503906 C 288.039062 99.949219 286.902344 101.429688 285.484375 103.117188 C 284.070312 104.800781 282.375 106.6875 280.601562 108.964844 L 279.007812 111.035156 L 278.75 113.632812 C 275.699219 144.246094 273.296875 163.089844 271.304688 176.832031 C 269.808594 187.144531 268.539062 194.621094 267.367188 202.195312 C 266.492188 207.863281 265.675781 213.574219 264.894531 220.414062 C 263.726562 230.675781 262.636719 243.441406 261.484375 262.667969 C 260.328125 281.894531 259.097656 307.601562 257.65625 343.792969 L 257.625 344.660156 L 257.753906 345.515625 L 264.425781 344.511719 L 257.667969 344.511719 C 257.667969 344.777344 257.691406 345.105469 257.753906 345.515625 L 264.425781 344.511719 L 257.667969 344.511719 L 260.488281 344.511719 L 257.753906 343.742188 C 257.71875 343.851562 257.667969 344.109375 257.667969 344.511719 L 260.488281 344.511719 L 257.753906 343.742188 L 258.472656 343.945312 L 257.769531 343.695312 L 257.753906 343.742188 L 258.472656 343.945312 L 257.769531 343.695312 L 257.921875 343.75 L 257.769531 343.6875 L 257.769531 343.695312 L 257.921875 343.75 L 257.769531 343.6875 C 257.769531 343.691406 257.71875 343.824219 257.515625 344.105469 C 257.152344 344.597656 256.269531 345.597656 254.183594 346.882812 C 251.0625 348.804688 245.21875 351.265625 235.28125 353.152344 C 225.347656 355.050781 211.363281 356.398438 192.085938 356.394531 C 174.222656 356.394531 160.875 355.242188 151.054688 353.5625 C 143.6875 352.300781 138.320312 350.742188 134.519531 349.222656 C 131.667969 348.085938 129.703125 346.96875 128.394531 346.046875 C 126.425781 344.652344 125.941406 343.761719 125.820312 343.550781 L 125.789062 343.492188 L 125.785156 343.484375 L 123.332031 344.398438 L 125.898438 344.398438 C 125.902344 343.832031 125.800781 343.511719 125.785156 343.484375 L 123.332031 344.398438 L 125.898438 344.398438 L 118.753906 344.398438 L 125.84375 345.269531 C 125.882812 344.925781 125.898438 344.640625 125.898438 344.398438 L 118.753906 344.398438 L 125.84375 345.269531 L 125.9375 344.46875 L 125.894531 343.667969 C 123.539062 300.203125 121.8125 271.878906 120.320312 251.753906 C 119.195312 236.660156 118.203125 226.164062 117.167969 217.375 C 116.390625 210.789062 115.59375 205.1875 114.722656 199.40625 C 113.414062 190.734375 111.933594 181.679688 110.023438 167.9375 C 108.117188 154.191406 105.777344 135.753906 102.769531 108.457031 L 101.902344 100.570312 L 93.953125 100.34375 C 93.515625 100.328125 93.160156 100.273438 92.753906 100.152344 C 92.347656 100.027344 91.882812 99.828125 91.265625 99.441406 L 91.265625 99.445312 C 90.355469 98.867188 89.394531 98.042969 88.492188 97.027344 C 87.136719 95.511719 85.941406 93.550781 85.15625 91.609375 C 84.359375 89.671875 84 87.753906 84.011719 86.484375 C 84.007812 85.582031 84.179688 85.050781 84.234375 84.945312 L 84.246094 84.921875 L 84.226562 84.910156 L 84.246094 84.921875 L 84.226562 84.910156 L 84.246094 84.921875 L 83.539062 84.496094 L 83.976562 85.183594 C 84.078125 85.125 84.238281 84.949219 84.246094 84.921875 L 83.539062 84.496094 L 83.976562 85.183594 L 83.992188 85.175781 C 84.554688 84.808594 85.027344 84.453125 85.441406 84.113281 L 85.554688 84.023438 L 85.8125 83.796875 L 85.773438 83.828125 C 86.011719 83.625 86.320312 83.347656 86.675781 83 L 86.742188 82.9375 L 86.921875 82.746094 L 86.910156 82.761719 C 87.167969 82.492188 87.460938 82.183594 87.757812 81.839844 L 87.785156 81.808594 L 87.855469 81.722656 L 87.875 81.703125 C 88.15625 81.371094 88.441406 81.019531 88.71875 80.65625 L 88.726562 80.648438 C 90.195312 78.710938 91.34375 76.710938 92.339844 74.730469 C 93.332031 72.75 94.148438 70.808594 94.792969 69.027344 C 95.300781 67.609375 96.21875 65.964844 97.503906 63.902344 C 98.769531 61.839844 100.390625 59.378906 101.792969 56.191406 C 102.480469 54.621094 103.480469 52.863281 104.738281 51.078125 C 106.628906 48.398438 109.101562 45.65625 111.859375 43.242188 C 114.613281 40.816406 117.648438 38.710938 120.589844 37.191406 L 120.585938 37.195312 C 126.464844 34.15625 131.992188 31.199219 137.730469 27.515625 C 140.359375 25.816406 142.726562 24.171875 144.757812 23.078125 C 145.765625 22.527344 146.675781 22.121094 147.425781 21.863281 C 148.183594 21.605469 148.761719 21.5 149.191406 21.480469 L 149.199219 21.480469 C 149.917969 21.4375 150.683594 21.417969 151.496094 21.417969 C 154.03125 21.414062 156.980469 21.597656 160.277344 21.605469 C 162.335938 21.605469 164.527344 21.527344 166.84375 21.226562 C 169.164062 20.917969 171.609375 20.378906 174.085938 19.425781 C 175.261719 18.980469 176.160156 18.710938 176.882812 18.558594 C 177.601562 18.402344 178.144531 18.351562 178.730469 18.347656 C 179.210938 18.347656 179.734375 18.386719 180.398438 18.496094 C 181.0625 18.605469 181.871094 18.78125 182.855469 19.054688 C 185.730469 19.851562 188.558594 20.359375 191.34375 20.660156 C 194.132812 20.964844 196.871094 21.066406 199.625 21.066406 C 199.691406 21.066406 199.78125 21.066406 199.882812 21.066406 L 200.035156 21.066406 L 200.191406 21.0625 L 199.929688 13.433594 L 199.960938 21.066406 C 200 21.066406 200.078125 21.066406 200.191406 21.0625 L 199.929688 13.433594 L 199.960938 21.066406 L 199.941406 16.113281 L 199.9375 21.066406 L 199.960938 21.066406 L 199.941406 16.113281 L 199.9375 21.066406 L 199.96875 21.066406 C 202.851562 21.066406 205.671875 21.523438 208.6875 22.332031 C 211.699219 23.140625 214.878906 24.320312 218.328125 25.691406 C 221.492188 26.9375 224.574219 27.695312 227.46875 28.316406 C 231.808594 29.230469 235.753906 29.871094 238.835938 30.789062 C 240.382812 31.242188 241.695312 31.746094 242.765625 32.300781 C 243.84375 32.859375 244.671875 33.449219 245.382812 34.136719 C 245.578125 34.324219 245.914062 34.730469 246.375 35.480469 C 246.726562 36.042969 247.140625 36.78125 247.648438 37.683594 C 248.414062 39.023438 249.378906 40.742188 250.878906 42.597656 C 252.363281 44.445312 254.472656 46.398438 257.152344 47.816406 L 257.148438 47.816406 C 258.707031 48.648438 260.167969 49.257812 261.433594 49.75 C 263.339844 50.484375 264.789062 50.980469 265.792969 51.433594 C 266.804688 51.898438 267.378906 52.25 268.023438 52.800781 C 270.382812 54.886719 272.714844 56.769531 275.308594 58.46875 C 277.898438 60.171875 280.714844 61.644531 283.859375 62.921875 C 284.722656 63.269531 285.214844 63.570312 285.441406 63.734375 C 285.613281 63.863281 285.640625 63.90625 285.652344 63.914062 C 285.652344 63.929688 285.671875 63.898438 285.792969 64.273438 C 285.910156 64.636719 286.0625 65.410156 286.109375 66.648438 C 286.253906 70.339844 286.632812 73.644531 287.390625 76.871094 C 288.148438 80.097656 289.246094 83.109375 290.605469 86.335938 C 290.992188 87.246094 291.265625 88.539062 291.261719 90.074219 C 291.265625 91.765625 290.925781 93.714844 290.296875 95.507812 L 298.921875 98.496094 " fill-opacity="1" fill-rule="nonzero"/></g><path fill="#c6c5c5" d="M 116.78125 344.160156 C 116.78125 344.160156 114.167969 365.507812 192.085938 365.507812 C 270 365.507812 266.78125 344.160156 266.78125 344.160156 C 274.3125 155.085938 275.941406 253.203125 291.957031 70.203125 C 293.390625 54.257812 277.589844 49.941406 190.796875 49.941406 C 104.003906 49.941406 87.882812 54.257812 89.546875 70.203125 C 108.175781 253.203125 106.542969 155.085938 116.78125 344.160156 " fill-opacity="1" fill-rule="nonzero"/><path fill="#eea427" d="M 122.546875 118.917969 C 132.273438 122.28125 142.792969 123.519531 152.980469 121.652344 C 158.289062 120.675781 163.769531 118.570312 169.179688 118.363281 C 174.980469 118.152344 180.824219 118.039062 186.628906 118.078125 C 192.589844 118.125 197.417969 118.511719 202.664062 121.507812 C 206.574219 123.734375 210.386719 126.035156 214.527344 127.8125 C 224.234375 131.972656 234.617188 131.183594 244.9375 131.101562 C 255.832031 131.011719 273.894531 129.398438 280.0625 140.683594 C 269.777344 256.335938 268.976562 168.085938 262.992188 318.453125 C 262.324219 334.039062 258.742188 336.859375 255.011719 339.394531 C 222.078125 362.53125 162.175781 362.53125 128.914062 339.394531 C 125.140625 336.859375 121.347656 334.039062 120.457031 318.453125 C 111.636719 155.515625 112.933594 248.179688 99.273438 110.273438 C 107.394531 112.199219 114.519531 116.140625 122.546875 118.917969 " fill-opacity="1" fill-rule="nonzero"/><path fill="#f4f4f4" d="M 287.761719 66.257812 C 287.761719 73.6875 244.207031 75.214844 190.882812 75.667969 C 137.558594 75.214844 94.003906 75.667969 94.003906 66.257812 C 94.003906 50.601562 137.269531 54.78125 190.796875 55.21875 C 244.328125 54.78125 287.949219 50.601562 287.761719 66.257812 " fill-opacity="1" fill-rule="nonzero"/><path fill="#fef7ea" d="M 79.0625 77.503906 C 70.683594 82.84375 75.816406 100.429688 86.367188 107.125 C 97.527344 114.214844 107.105469 102.949219 117.5625 102.488281 C 121.179688 102.332031 124.035156 103.851562 127.265625 104.828125 C 130.339844 105.753906 133.378906 105.058594 136.484375 105.824219 C 140.273438 106.761719 140.144531 109.464844 142.792969 111.171875 C 144.953125 112.570312 147.496094 112.175781 149.984375 112.171875 C 152.101562 112.167969 154.21875 112.203125 156.34375 112.234375 C 160.175781 112.296875 164.011719 112.363281 167.816406 112.191406 C 170.132812 112.089844 172.535156 112.265625 174.929688 112.445312 C 177.796875 112.65625 180.660156 112.863281 183.394531 112.597656 C 189.339844 112.023438 194.351562 107.984375 200.828125 108.804688 C 205.558594 109.402344 210.21875 112.058594 214.59375 113.933594 C 215.074219 128.011719 214.636719 142.226562 214.636719 156.328125 C 214.636719 167.453125 215.46875 178.804688 216.414062 189.898438 C 217 196.796875 220.867188 209.632812 226.746094 214.164062 C 238.15625 222.945312 236.160156 189.796875 236.160156 184.921875 C 236.160156 171.207031 235.316406 157.652344 235.316406 144.148438 C 235.316406 137.820312 234.089844 129.820312 241.992188 128.605469 C 245.691406 128.035156 245.46875 127.800781 246.511719 132.039062 C 247.621094 136.542969 246.796875 141.199219 247.210938 145.761719 C 248.269531 157.308594 250.925781 168.070312 250.925781 179.765625 C 250.925781 189.96875 250.925781 200.167969 250.925781 210.371094 C 250.925781 219.148438 251.136719 227.859375 249.894531 236.40625 C 248.601562 245.292969 246.875 254.371094 246.308594 263.363281 C 245.832031 270.898438 243.511719 282.679688 250.378906 288.125 C 257.546875 293.808594 262.625 288.441406 264.515625 281.824219 C 268.621094 267.425781 267.804688 252.464844 267.804688 237.335938 C 267.804688 221.871094 269.074219 206.902344 269.074219 191.445312 C 269.074219 177.414062 263.757812 165.027344 263.585938 151.269531 C 263.511719 145.347656 265.09375 139.125 268.121094 134.058594 C 270.445312 130.167969 274.175781 130.191406 277.945312 128.066406 C 282.679688 125.394531 283.339844 121.007812 286.257812 116.699219 C 290.507812 110.414062 296.242188 106.1875 298.921875 98.496094 C 300.707031 93.367188 301.007812 87.519531 299.019531 82.800781 C 296.503906 76.839844 295.492188 72.910156 295.230469 66.289062 C 294.976562 59.953125 292.8125 56.726562 287.3125 54.484375 C 281.964844 52.308594 278.429688 49.820312 274.066406 45.972656 C 270.144531 42.519531 265.898438 42.15625 261.453125 39.78125 C 256.273438 37.023438 255.53125 31.296875 251.761719 27.621094 C 244.089844 20.140625 231.328125 21.039062 221.695312 17.222656 C 214.578125 14.402344 207.628906 11.9375 199.882812 11.957031 C 194.726562 11.96875 190.097656 11.601562 185.289062 10.273438 C 179.859375 8.773438 176.261719 8.828125 170.808594 10.925781 C 166.136719 12.722656 161.015625 12.5625 155.886719 12.402344 C 153.480469 12.328125 151.070312 12.253906 148.699219 12.378906 C 142.949219 12.6875 137.589844 16.773438 132.796875 19.855469 C 127.425781 23.292969 122.195312 26.105469 116.386719 29.105469 C 106.542969 34.195312 97.324219 43.609375 93.425781 52.554688 C 91.414062 57.164062 87.992188 61.007812 86.210938 65.929688 C 84.746094 69.972656 81.925781 75.675781 79.0625 77.503906 " fill-opacity="1" fill-rule="nonzero"/><path fill="#fffef5" d="M 230.21875 190.617188 C 230.085938 195.5625 229.082031 200.476562 229.101562 205.421875 C 229.109375 207.03125 230.285156 214.539062 231.800781 209.929688 C 232.328125 208.3125 232.714844 206.664062 232.945312 204.976562 C 235.367188 187.140625 232.542969 169.4375 230.644531 151.707031 C 230.617188 164.679688 230.558594 177.6875 230.21875 190.617188 " fill-opacity="1" fill-rule="nonzero"/><path fill="#fffef5" d="M 256.785156 283.707031 C 258.605469 285.945312 259.746094 286.070312 260.195312 284.09375 C 260.359375 283.734375 260.519531 283.371094 260.679688 283.003906 C 261.742188 280.714844 262.6875 278.355469 263.246094 275.882812 C 264.273438 271.328125 264.785156 266.710938 264.878906 262.042969 C 265.03125 254.445312 264.472656 246.769531 265.109375 239.195312 C 265.875 230.058594 266.328125 221.011719 266.328125 211.839844 C 266.328125 208.386719 266.191406 205.09375 265.914062 201.851562 C 265.671875 204.515625 265.222656 207.234375 264.542969 210.179688 C 262.484375 219.136719 261.425781 228.039062 261.425781 237.234375 C 261.425781 246.378906 262.257812 255.667969 261.265625 264.777344 C 260.554688 271.296875 257.941406 277.3125 256.785156 283.707031 " fill-opacity="1" fill-rule="nonzero"/><path fill="#fffef5" d="M 267.394531 84.078125 C 268.089844 89.109375 267.527344 98.582031 271.542969 102.335938 C 273.535156 104.199219 280.042969 105.53125 281.660156 102.320312 C 282.628906 100.410156 281.355469 99.132812 280.242188 97.703125 C 278.488281 95.464844 277.074219 92.917969 276.976562 89.988281 C 276.734375 82.382812 282.472656 76.566406 280.148438 68.816406 C 277.917969 61.382812 273.226562 59.257812 267.085938 55.292969 C 259.820312 50.605469 255.417969 45.335938 250.871094 38.132812 C 248.683594 34.667969 244.785156 34.167969 241.183594 32.820312 C 237.523438 31.449219 234.253906 29.804688 231.125 27.46875 C 227.238281 24.566406 224.140625 21.703125 219.039062 21.371094 C 214.972656 21.109375 210.667969 21.085938 206.753906 19.824219 C 198.359375 17.125 191.230469 14.167969 182.238281 14.140625 C 174.617188 14.117188 162.859375 13.117188 156.128906 17.316406 C 153.832031 18.75 152.019531 20.652344 150.476562 22.777344 C 153.152344 25.144531 157.496094 23.238281 161.195312 22.316406 C 167.511719 20.738281 173.8125 20.15625 180.242188 21.640625 C 187.683594 23.359375 192.449219 26.894531 198.695312 30.929688 C 202.625 33.464844 205.871094 33.464844 210.441406 33.257812 C 220.605469 32.800781 232.929688 32.230469 238.25 42.8125 C 239.835938 45.957031 240.046875 49.304688 240.4375 52.734375 C 240.609375 54.28125 243.425781 54.59375 245.0625 54.859375 C 250.699219 55.769531 257.601562 55.554688 261.582031 60.515625 C 264.4375 64.078125 266.320312 67.632812 266.945312 72.195312 C 267.484375 76.152344 266.847656 80.140625 267.394531 84.078125 " fill-opacity="1" fill-rule="nonzero"/><path fill="#d5d4d5" d="M 223.03125 199.675781 C 221.484375 190.308594 222.066406 180.378906 223.15625 170.980469 C 224.425781 160.039062 224.195312 149.210938 223.410156 138.234375 C 222.804688 129.722656 223.550781 121.164062 222.800781 112.671875 C 222.125 104.992188 219.386719 93.574219 210.113281 92.296875 C 203.5 91.382812 196.355469 95.140625 190.335938 97.34375 C 182.140625 100.34375 173.09375 102.15625 164.742188 98.605469 C 161.492188 97.226562 158.988281 95.308594 156.667969 92.640625 C 156.210938 92.109375 155.609375 91.285156 154.949219 90.488281 C 151.476562 95.300781 145.574219 98.089844 139.234375 98.003906 C 134.984375 97.949219 130.335938 97.167969 126.777344 94.644531 C 125.027344 93.40625 123.015625 92.109375 121.554688 90.53125 C 120.714844 89.695312 119.941406 88.800781 119.234375 87.851562 L 119.054688 87.648438 C 114.90625 88.445312 110.917969 90.195312 106.675781 90.441406 C 101.847656 90.722656 97.40625 89.347656 93.097656 87.242188 C 87.5 84.511719 83.152344 80.476562 81.472656 75.113281 C 80.691406 76.144531 79.878906 76.984375 79.0625 77.503906 C 70.683594 82.84375 75.816406 100.429688 86.367188 107.125 C 97.527344 114.214844 107.105469 102.949219 117.5625 102.488281 C 121.179688 102.332031 124.035156 103.851562 127.265625 104.828125 C 130.339844 105.753906 133.378906 105.058594 136.484375 105.824219 C 140.273438 106.761719 140.144531 109.464844 142.792969 111.171875 C 144.953125 112.570312 147.496094 112.175781 149.984375 112.171875 C 155.910156 112.160156 161.898438 112.457031 167.816406 112.191406 C 172.902344 111.964844 178.367188 113.089844 183.394531 112.597656 C 189.339844 112.023438 194.351562 107.984375 200.828125 108.804688 C 205.558594 109.402344 210.21875 112.058594 214.59375 113.933594 C 215.074219 128.011719 214.636719 142.226562 214.636719 156.328125 C 214.636719 167.453125 215.46875 178.804688 216.414062 189.898438 C 217 196.796875 220.867188 209.632812 226.746094 214.164062 C 227.378906 214.644531 227.957031 214.980469 228.507812 215.21875 C 226.394531 210.105469 223.925781 205.113281 223.03125 199.675781 " fill-opacity="1" fill-rule="nonzero"/><path fill="#bdbcbd" d="M 237.136719 131.207031 C 238.148438 129.898438 239.675781 128.960938 241.992188 128.605469 C 243.09375 128.433594 243.851562 128.296875 244.394531 128.296875 C 245.523438 128.296875 245.738281 128.898438 246.277344 131.082031 C 245.738281 128.898438 245.523438 128.296875 244.394531 128.296875 C 243.851562 128.296875 243.09375 128.433594 241.992188 128.605469 C 239.679688 128.960938 238.15625 129.898438 237.148438 131.207031 C 237.144531 131.207031 237.140625 131.207031 237.136719 131.207031 " fill-opacity="1" fill-rule="nonzero"/><path fill="#e39d25" d="M 246.28125 263.765625 C 246.28125 263.765625 246.28125 263.765625 246.28125 263.761719 C 246.28125 263.765625 246.28125 263.765625 246.28125 263.765625 M 246.285156 263.722656 C 246.285156 263.714844 246.285156 263.703125 246.285156 263.6875 C 246.285156 263.703125 246.285156 263.714844 246.285156 263.722656 M 246.285156 263.683594 C 246.292969 263.59375 246.296875 263.503906 246.304688 263.417969 C 246.296875 263.503906 246.292969 263.59375 246.285156 263.683594 M 246.304688 263.417969 C 246.304688 263.410156 246.304688 263.40625 246.304688 263.402344 C 246.304688 263.40625 246.304688 263.410156 246.304688 263.417969 M 246.304688 263.394531 C 246.304688 263.390625 246.304688 263.386719 246.304688 263.382812 C 246.304688 263.386719 246.304688 263.390625 246.304688 263.394531 M 235.808594 134.039062 C 235.808594 134.027344 235.808594 134.011719 235.808594 133.996094 C 236.09375 132.957031 236.515625 132.011719 237.136719 131.207031 C 237.140625 131.207031 237.144531 131.207031 237.148438 131.207031 C 236.523438 132.023438 236.09375 132.984375 235.808594 134.039062 " fill-opacity="1" fill-rule="nonzero"/><path fill="#f3ebdf" d="M 247.367188 284.355469 C 244.40625 278.433594 245.855469 269.835938 246.28125 263.765625 C 246.28125 263.765625 246.28125 263.765625 246.28125 263.761719 C 246.28125 263.75 246.28125 263.738281 246.285156 263.722656 C 246.285156 263.714844 246.285156 263.703125 246.285156 263.6875 C 246.285156 263.6875 246.285156 263.6875 246.285156 263.683594 C 246.292969 263.59375 246.296875 263.503906 246.304688 263.417969 C 246.304688 263.410156 246.304688 263.40625 246.304688 263.402344 C 246.304688 263.398438 246.304688 263.398438 246.304688 263.394531 C 246.304688 263.390625 246.304688 263.386719 246.304688 263.382812 C 246.304688 263.375 246.308594 263.371094 246.308594 263.363281 C 246.875 254.371094 248.601562 245.292969 249.894531 236.40625 C 250.824219 230 250.941406 223.492188 250.941406 216.9375 C 250.941406 214.753906 250.925781 212.566406 250.925781 210.371094 L 250.925781 179.765625 C 250.925781 168.070312 248.269531 157.308594 247.210938 145.761719 C 247.113281 144.636719 247.082031 143.511719 247.082031 142.382812 C 247.085938 141.039062 247.121094 139.703125 247.121094 138.367188 C 247.121094 136.242188 247.023438 134.125 246.511719 132.039062 C 246.425781 131.6875 246.347656 131.371094 246.277344 131.082031 C 245.738281 128.898438 245.523438 128.296875 244.394531 128.296875 C 243.851562 128.296875 243.09375 128.433594 241.992188 128.605469 C 239.675781 128.960938 238.148438 129.898438 237.136719 131.207031 C 236.515625 132.011719 236.09375 132.957031 235.808594 133.996094 C 235.734375 132.066406 235.675781 130.140625 235.679688 128.207031 C 235.679688 127.800781 235.679688 127.398438 235.679688 126.996094 C 237.082031 126.96875 238.519531 126.394531 239.789062 125.054688 C 241.113281 123.664062 242.445312 123.097656 243.742188 123.097656 C 247.054688 123.097656 250.121094 126.808594 252.101562 129.988281 C 256.402344 136.867188 255.503906 147.175781 255.636719 154.945312 C 255.945312 173.269531 257.71875 191.480469 257.25 209.828125 C 257.015625 218.910156 256.398438 228.105469 254.582031 237.011719 C 252.824219 245.625 250.625 253.941406 249.53125 262.691406 C 248.726562 269.132812 246.921875 277.082031 247.367188 284.355469 " fill-opacity="1" fill-rule="nonzero"/><path fill="#f3ebdf" d="M 187.640625 86.078125 C 187.640625 86.078125 187.566406 85.972656 187.441406 85.761719 C 187.304688 85.5625 187.136719 85.238281 186.871094 84.875 C 186.742188 84.6875 186.601562 84.488281 186.445312 84.265625 C 186.277344 84.054688 186.097656 83.828125 185.90625 83.585938 C 185.511719 83.109375 185.03125 82.605469 184.484375 82.089844 C 183.929688 81.578125 183.289062 81.085938 182.582031 80.609375 C 181.875 80.136719 181.074219 79.734375 180.238281 79.355469 C 179.382812 78.996094 178.472656 78.71875 177.535156 78.496094 C 176.589844 78.289062 175.613281 78.167969 174.632812 78.136719 C 174.457031 78.128906 174.28125 78.125 174.097656 78.125 C 173.304688 78.125 172.503906 78.183594 171.722656 78.300781 C 170.769531 78.464844 169.84375 78.679688 168.972656 78.980469 C 168.109375 79.304688 167.285156 79.660156 166.542969 80.082031 C 165.808594 80.507812 165.136719 80.960938 164.554688 81.433594 C 163.972656 81.90625 163.460938 82.382812 163.035156 82.832031 C 162.828125 83.0625 162.632812 83.28125 162.449219 83.476562 C 162.28125 83.6875 162.125 83.882812 161.984375 84.054688 C 161.695312 84.40625 161.507812 84.707031 161.359375 84.90625 C 161.21875 85.101562 161.140625 85.214844 161.140625 85.214844 C 161.140625 85.214844 161.1875 85.085938 161.273438 84.859375 C 161.371094 84.636719 161.464844 84.28125 161.683594 83.875 C 161.789062 83.664062 161.902344 83.4375 162.03125 83.1875 C 162.160156 82.941406 162.335938 82.691406 162.5 82.414062 C 162.859375 81.871094 163.300781 81.277344 163.859375 80.695312 C 164.121094 80.386719 164.453125 80.117188 164.765625 79.808594 C 165.097656 79.527344 165.453125 79.238281 165.835938 78.972656 C 166.597656 78.433594 167.460938 77.9375 168.40625 77.535156 C 169.355469 77.15625 170.371094 76.808594 171.433594 76.625 C 172.402344 76.460938 173.402344 76.371094 174.402344 76.371094 C 174.5 76.371094 174.597656 76.371094 174.699219 76.371094 C 175.792969 76.429688 176.882812 76.585938 177.929688 76.839844 C 178.980469 77.097656 179.96875 77.507812 180.890625 77.949219 C 181.804688 78.414062 182.636719 78.960938 183.363281 79.554688 C 183.722656 79.84375 184.0625 80.15625 184.375 80.457031 C 184.667969 80.785156 184.976562 81.078125 185.21875 81.398438 C 185.738281 82.019531 186.140625 82.644531 186.460938 83.203125 C 186.613281 83.492188 186.761719 83.75 186.882812 84.007812 C 186.992188 84.265625 187.09375 84.507812 187.183594 84.71875 C 187.378906 85.136719 187.441406 85.496094 187.523438 85.722656 C 187.597656 85.957031 187.640625 86.078125 187.640625 86.078125 " fill-opacity="1" fill-rule="nonzero"/><path fill="#f3ebdf" d="M 190.191406 79.382812 C 190.191406 79.382812 190.199219 79.25 190.222656 79.003906 C 190.234375 78.765625 190.289062 78.402344 190.296875 77.949219 C 190.300781 77.730469 190.304688 77.484375 190.3125 77.214844 C 190.304688 76.945312 190.296875 76.65625 190.285156 76.34375 C 190.253906 75.726562 190.171875 75.035156 190.035156 74.296875 C 189.898438 73.5625 189.675781 72.78125 189.390625 71.980469 C 189.105469 71.179688 188.699219 70.382812 188.253906 69.578125 C 187.78125 68.785156 187.21875 68.019531 186.597656 67.28125 C 185.957031 66.554688 185.25 65.878906 184.484375 65.273438 C 183.714844 64.664062 182.890625 64.128906 182.039062 63.675781 C 181.179688 63.246094 180.304688 62.867188 179.421875 62.589844 C 178.539062 62.339844 177.664062 62.132812 176.816406 62.03125 C 176.179688 61.960938 175.558594 61.921875 174.972656 61.921875 C 174.78125 61.921875 174.59375 61.929688 174.414062 61.9375 C 173.660156 61.972656 172.964844 62.046875 172.355469 62.15625 C 172.050781 62.222656 171.765625 62.277344 171.503906 62.328125 C 171.242188 62.398438 170.996094 62.457031 170.78125 62.523438 C 170.339844 62.628906 170.011719 62.757812 169.773438 62.824219 C 169.542969 62.90625 169.414062 62.945312 169.414062 62.945312 C 169.414062 62.945312 169.527344 62.875 169.734375 62.742188 C 169.941406 62.621094 170.230469 62.390625 170.652344 62.191406 C 170.859375 62.085938 171.089844 61.972656 171.335938 61.847656 C 171.589844 61.730469 171.875 61.632812 172.179688 61.507812 C 172.789062 61.28125 173.496094 61.066406 174.296875 60.929688 C 174.695312 60.839844 175.113281 60.8125 175.550781 60.753906 C 175.902344 60.730469 176.261719 60.714844 176.636719 60.714844 C 176.726562 60.714844 176.816406 60.714844 176.910156 60.71875 C 177.84375 60.734375 178.832031 60.851562 179.832031 61.09375 C 180.824219 61.351562 181.847656 61.675781 182.808594 62.15625 C 183.777344 62.644531 184.707031 63.226562 185.578125 63.890625 C 186.425781 64.589844 187.210938 65.359375 187.898438 66.191406 C 188.59375 67.019531 189.140625 67.933594 189.621094 68.839844 C 190.078125 69.757812 190.417969 70.691406 190.644531 71.597656 C 190.765625 72.042969 190.851562 72.492188 190.921875 72.921875 C 190.964844 73.359375 191.035156 73.777344 191.039062 74.183594 C 191.085938 74.984375 191.039062 75.726562 190.960938 76.367188 C 190.910156 76.691406 190.875 76.992188 190.820312 77.265625 C 190.753906 77.542969 190.695312 77.792969 190.636719 78.011719 C 190.542969 78.46875 190.382812 78.792969 190.3125 79.027344 C 190.234375 79.257812 190.191406 79.382812 190.191406 79.382812 " fill-opacity="1" fill-rule="nonzero"/><path fill="#f3ebdf" d="M 177.925781 45.941406 C 177.925781 45.941406 177.828125 45.796875 177.644531 45.519531 C 177.550781 45.378906 177.441406 45.207031 177.304688 45.003906 C 177.160156 44.808594 177.027344 44.566406 176.890625 44.28125 C 176.75 44 176.585938 43.691406 176.425781 43.351562 C 176.289062 42.992188 176.148438 42.609375 175.988281 42.199219 C 175.847656 41.78125 175.75 41.320312 175.617188 40.839844 C 175.5 40.355469 175.457031 39.832031 175.367188 39.292969 C 175.332031 38.746094 175.289062 38.171875 175.292969 37.578125 C 175.328125 36.988281 175.335938 36.371094 175.453125 35.75 C 175.609375 34.488281 176.007812 33.191406 176.566406 31.914062 C 176.71875 31.601562 176.875 31.285156 177.027344 30.96875 C 177.191406 30.648438 177.390625 30.355469 177.578125 30.046875 L 177.859375 29.589844 L 178.1875 29.148438 C 178.417969 28.867188 178.628906 28.5625 178.875 28.292969 C 179.296875 27.804688 179.789062 27.335938 180.300781 26.894531 C 180.238281 26.792969 180.164062 26.6875 180.082031 26.570312 C 179.953125 26.390625 179.8125 26.1875 179.660156 25.964844 C 179.492188 25.757812 179.308594 25.527344 179.117188 25.285156 C 178.722656 24.808594 178.242188 24.300781 177.691406 23.789062 C 177.140625 23.277344 176.5 22.785156 175.796875 22.308594 C 175.085938 21.839844 174.285156 21.433594 173.445312 21.050781 C 173.21875 20.957031 172.988281 20.871094 172.761719 20.78125 C 173.910156 20.789062 175.0625 20.851562 176.214844 20.972656 C 176.339844 21.0625 176.457031 21.160156 176.570312 21.253906 C 176.9375 21.546875 177.273438 21.851562 177.585938 22.15625 C 177.878906 22.484375 178.183594 22.777344 178.429688 23.101562 C 178.949219 23.71875 179.355469 24.335938 179.671875 24.90625 C 179.824219 25.191406 179.976562 25.453125 180.09375 25.707031 C 180.207031 25.964844 180.304688 26.203125 180.394531 26.417969 C 180.4375 26.515625 180.480469 26.609375 180.511719 26.703125 C 181.082031 26.226562 181.671875 25.792969 182.226562 25.429688 L 183.25 24.871094 C 183.574219 24.675781 183.921875 24.539062 184.261719 24.398438 C 184.941406 24.082031 185.65625 23.875 186.363281 23.664062 C 186.367188 23.664062 186.367188 23.660156 186.371094 23.660156 C 187.246094 24.039062 188.089844 24.453125 188.921875 24.882812 C 188.21875 24.980469 187.511719 25.132812 186.8125 25.304688 C 186.183594 25.507812 185.550781 25.695312 184.957031 25.980469 C 184.652344 26.113281 184.347656 26.238281 184.0625 26.417969 L 183.230469 26.878906 C 181.992188 27.683594 181.058594 28.4375 180.148438 29.425781 C 179.304688 30.414062 178.519531 31.449219 177.96875 32.582031 C 177.4375 33.707031 176.976562 34.847656 176.753906 35.984375 C 176.484375 37.113281 176.40625 38.210938 176.382812 39.234375 C 176.410156 39.746094 176.410156 40.242188 176.460938 40.707031 C 176.527344 41.167969 176.558594 41.617188 176.648438 42.027344 C 176.738281 42.4375 176.828125 42.828125 176.910156 43.179688 C 177.011719 43.53125 177.121094 43.851562 177.214844 44.144531 C 177.382812 44.738281 177.613281 45.160156 177.730469 45.472656 C 177.855469 45.78125 177.925781 45.941406 177.925781 45.941406 M 154.351562 26.90625 C 154.351562 26.90625 154.398438 26.789062 154.484375 26.558594 C 154.585938 26.335938 154.675781 25.972656 154.894531 25.574219 C 155 25.367188 155.117188 25.136719 155.238281 24.886719 C 155.375 24.640625 155.542969 24.394531 155.714844 24.117188 C 155.808594 23.972656 155.90625 23.828125 156.011719 23.679688 C 156.511719 23.585938 157.019531 23.464844 157.523438 23.328125 C 157.042969 23.742188 156.613281 24.144531 156.246094 24.53125 C 156.039062 24.761719 155.839844 24.976562 155.664062 25.175781 C 155.492188 25.390625 155.332031 25.582031 155.195312 25.757812 C 154.90625 26.105469 154.71875 26.410156 154.570312 26.597656 C 154.429688 26.804688 154.351562 26.90625 154.351562 26.90625 " fill-opacity="1" fill-rule="nonzero"/><path fill="#f4f3ea" d="M 202.621094 30.679688 C 202.621094 30.679688 202.503906 30.550781 202.289062 30.296875 C 202.0625 30.054688 201.773438 29.648438 201.320312 29.242188 C 201.097656 29.027344 200.863281 28.789062 200.59375 28.539062 C 200.3125 28.3125 200.007812 28.058594 199.679688 27.792969 C 199.347656 27.53125 198.964844 27.308594 198.578125 27.039062 C 198.183594 26.785156 197.738281 26.5625 197.296875 26.3125 C 196.828125 26.101562 196.34375 25.875 195.832031 25.6875 C 195.304688 25.527344 194.785156 25.300781 194.207031 25.191406 C 193.089844 24.882812 191.863281 24.792969 190.613281 24.769531 C 190.578125 24.769531 190.550781 24.769531 190.515625 24.769531 C 189.988281 24.769531 189.453125 24.8125 188.921875 24.882812 C 188.089844 24.453125 187.246094 24.039062 186.371094 23.660156 C 187.59375 23.359375 188.832031 23.203125 190.039062 23.203125 C 190.242188 23.203125 190.445312 23.210938 190.640625 23.21875 C 192.03125 23.285156 193.371094 23.515625 194.574219 23.933594 C 195.1875 24.105469 195.746094 24.375 196.292969 24.605469 C 196.824219 24.867188 197.320312 25.164062 197.792969 25.433594 C 198.242188 25.757812 198.691406 26.027344 199.070312 26.347656 C 199.441406 26.683594 199.8125 26.972656 200.121094 27.289062 C 200.421875 27.613281 200.703125 27.90625 200.964844 28.1875 C 201.203125 28.488281 201.402344 28.769531 201.59375 29.019531 C 201.6875 29.144531 201.777344 29.265625 201.859375 29.378906 C 201.9375 29.492188 201.996094 29.609375 202.058594 29.710938 C 202.179688 29.921875 202.285156 30.097656 202.367188 30.242188 C 202.53125 30.527344 202.621094 30.679688 202.621094 30.679688 M 156.011719 23.679688 C 156.308594 23.261719 156.660156 22.828125 157.074219 22.390625 C 157.339844 22.082031 157.660156 21.820312 157.976562 21.507812 C 158.308594 21.226562 158.664062 20.941406 159.046875 20.667969 C 159.8125 20.128906 160.675781 19.640625 161.617188 19.234375 C 162.570312 18.855469 163.578125 18.507812 164.644531 18.324219 C 165.609375 18.15625 166.597656 18.070312 167.59375 18.070312 C 167.695312 18.070312 167.800781 18.070312 167.90625 18.074219 C 169.003906 18.125 170.09375 18.289062 171.144531 18.539062 C 172.195312 18.796875 173.179688 19.210938 174.101562 19.648438 C 174.871094 20.039062 175.578125 20.484375 176.214844 20.972656 C 175.0625 20.851562 173.910156 20.789062 172.761719 20.78125 C 172.109375 20.554688 171.4375 20.355469 170.746094 20.195312 C 169.804688 19.988281 168.828125 19.867188 167.847656 19.832031 C 167.671875 19.824219 167.5 19.824219 167.324219 19.824219 C 166.519531 19.824219 165.71875 19.886719 164.933594 20.003906 C 163.984375 20.167969 163.054688 20.382812 162.179688 20.683594 C 161.320312 21.007812 160.496094 21.359375 159.753906 21.777344 C 159.023438 22.207031 158.347656 22.660156 157.761719 23.136719 C 157.683594 23.199219 157.605469 23.265625 157.523438 23.328125 C 157.019531 23.464844 156.511719 23.585938 156.011719 23.679688 " fill-opacity="1" fill-rule="nonzero"/><path fill="#f3ebdf" d="M 217.878906 57.445312 C 217.878906 57.445312 217.886719 57.3125 217.910156 57.070312 C 217.921875 56.828125 217.976562 56.464844 217.980469 56.011719 C 217.988281 55.792969 217.996094 55.546875 218.003906 55.277344 C 217.996094 55.007812 217.984375 54.71875 217.972656 54.40625 C 217.941406 53.792969 217.859375 53.097656 217.726562 52.363281 C 217.585938 51.621094 217.363281 50.84375 217.078125 50.042969 C 216.789062 49.242188 216.390625 48.445312 215.941406 47.636719 C 215.46875 46.84375 214.902344 46.082031 214.28125 45.34375 C 213.648438 44.617188 212.9375 43.941406 212.167969 43.335938 C 211.402344 42.726562 210.582031 42.191406 209.730469 41.738281 C 208.863281 41.308594 207.992188 40.929688 207.109375 40.652344 C 206.226562 40.398438 205.355469 40.191406 204.507812 40.09375 C 203.859375 40.023438 203.230469 39.984375 202.636719 39.984375 C 202.453125 39.984375 202.277344 39.988281 202.097656 39.996094 C 201.347656 40.035156 200.65625 40.109375 200.042969 40.222656 C 199.738281 40.28125 199.453125 40.339844 199.1875 40.390625 C 198.925781 40.460938 198.6875 40.519531 198.46875 40.582031 C 198.03125 40.6875 197.699219 40.820312 197.460938 40.890625 C 197.226562 40.964844 197.105469 41.007812 197.105469 41.007812 C 197.105469 41.007812 197.214844 40.9375 197.417969 40.804688 C 197.632812 40.683594 197.921875 40.449219 198.339844 40.257812 C 198.546875 40.148438 198.773438 40.035156 199.023438 39.910156 C 199.277344 39.789062 199.566406 39.691406 199.867188 39.574219 C 200.476562 39.34375 201.1875 39.128906 201.980469 38.992188 C 202.378906 38.898438 202.800781 38.875 203.238281 38.816406 C 203.585938 38.792969 203.953125 38.777344 204.320312 38.777344 C 204.410156 38.777344 204.507812 38.777344 204.597656 38.78125 C 205.53125 38.796875 206.523438 38.914062 207.523438 39.152344 C 208.511719 39.414062 209.53125 39.734375 210.496094 40.222656 C 211.460938 40.707031 212.394531 41.285156 213.265625 41.953125 C 214.113281 42.648438 214.894531 43.425781 215.589844 44.253906 C 216.28125 45.082031 216.824219 45.996094 217.308594 46.902344 C 217.769531 47.816406 218.105469 48.75 218.335938 49.660156 C 218.453125 50.105469 218.539062 50.558594 218.613281 50.984375 C 218.652344 51.421875 218.722656 51.835938 218.726562 52.242188 C 218.773438 53.046875 218.726562 53.785156 218.648438 54.429688 C 218.597656 54.753906 218.566406 55.054688 218.507812 55.328125 C 218.441406 55.601562 218.382812 55.851562 218.328125 56.082031 C 218.230469 56.53125 218.074219 56.855469 218.003906 57.089844 C 217.917969 57.316406 217.878906 57.445312 217.878906 57.445312 " fill-opacity="1" fill-rule="nonzero"/><path fill="#f3ebdf" d="M 120.203125 72.457031 C 120.203125 72.457031 120.367188 72.386719 120.671875 72.253906 C 120.964844 72.109375 121.441406 71.949219 121.96875 71.636719 C 122.234375 71.488281 122.53125 71.335938 122.847656 71.148438 C 123.152344 70.949219 123.480469 70.730469 123.828125 70.492188 C 124.175781 70.25 124.507812 69.949219 124.875 69.664062 C 125.230469 69.359375 125.574219 69 125.945312 68.648438 C 126.28125 68.261719 126.644531 67.871094 126.972656 67.433594 C 127.28125 66.976562 127.644531 66.546875 127.917969 66.027344 C 128.539062 65.050781 128.984375 63.90625 129.375 62.722656 C 129.757812 61.523438 129.898438 60.230469 129.96875 58.929688 C 129.957031 58.277344 129.964844 57.617188 129.859375 56.964844 C 129.824219 56.636719 129.792969 56.308594 129.707031 55.988281 L 129.503906 55.058594 C 129.09375 53.640625 128.644531 52.53125 127.964844 51.375 C 127.257812 50.28125 126.496094 49.226562 125.574219 48.378906 C 124.644531 47.539062 123.691406 46.765625 122.664062 46.21875 C 121.660156 45.632812 120.628906 45.242188 119.65625 44.914062 C 119.160156 44.796875 118.683594 44.648438 118.222656 44.566406 C 117.761719 44.492188 117.320312 44.390625 116.902344 44.355469 C 116.484375 44.324219 116.085938 44.296875 115.722656 44.269531 C 115.667969 44.269531 115.617188 44.269531 115.558594 44.269531 C 115.253906 44.269531 114.972656 44.277344 114.710938 44.28125 C 114.671875 44.28125 114.632812 44.28125 114.597656 44.28125 C 114.035156 44.28125 113.597656 44.363281 113.285156 44.382812 C 112.953125 44.421875 112.773438 44.4375 112.773438 44.4375 C 112.773438 44.4375 112.949219 44.382812 113.265625 44.289062 C 113.425781 44.242188 113.621094 44.183594 113.855469 44.117188 C 114.089844 44.035156 114.363281 43.976562 114.671875 43.933594 C 114.980469 43.882812 115.320312 43.8125 115.699219 43.757812 C 116.082031 43.734375 116.492188 43.707031 116.929688 43.679688 C 117 43.679688 117.070312 43.679688 117.140625 43.679688 C 117.519531 43.679688 117.921875 43.710938 118.339844 43.71875 C 118.839844 43.746094 119.351562 43.859375 119.898438 43.929688 C 120.429688 44.058594 120.992188 44.183594 121.5625 44.359375 C 122.117188 44.566406 122.710938 44.753906 123.269531 45.050781 C 124.4375 45.566406 125.5625 46.324219 126.617188 47.226562 C 126.875 47.46875 127.132812 47.707031 127.394531 47.945312 C 127.648438 48.191406 127.875 48.472656 128.117188 48.738281 L 128.476562 49.140625 L 128.796875 49.582031 C 129.003906 49.878906 129.230469 50.171875 129.421875 50.488281 C 130.1875 51.710938 130.808594 53.230469 131.1875 54.523438 L 131.425781 55.664062 L 131.460938 55.863281 C 131.554688 55.753906 131.660156 55.640625 131.785156 55.53125 C 131.953125 55.363281 132.136719 55.191406 132.335938 54.992188 C 132.546875 54.808594 132.792969 54.628906 133.046875 54.421875 C 133.558594 54.027344 134.175781 53.617188 134.894531 53.25 C 135.25 53.042969 135.644531 52.898438 136.042969 52.710938 C 136.453125 52.558594 136.882812 52.40625 137.328125 52.28125 C 138.234375 52.019531 139.210938 51.839844 140.234375 51.773438 C 140.550781 51.761719 140.871094 51.753906 141.195312 51.753906 C 141.921875 51.753906 142.660156 51.792969 143.394531 51.917969 C 144.457031 52.097656 145.523438 52.378906 146.554688 52.757812 C 147.570312 53.179688 148.542969 53.6875 149.449219 54.273438 C 150.355469 54.867188 151.148438 55.578125 151.875 56.300781 C 152.585938 57.046875 153.183594 57.835938 153.667969 58.628906 C 153.914062 59.03125 154.128906 59.429688 154.328125 59.820312 C 154.492188 60.226562 154.683594 60.605469 154.8125 60.988281 C 155.09375 61.746094 155.265625 62.460938 155.378906 63.101562 C 155.425781 63.425781 155.484375 63.71875 155.511719 64.003906 C 155.527344 64.277344 155.542969 64.542969 155.558594 64.769531 C 155.597656 65.234375 155.542969 65.585938 155.546875 65.835938 C 155.535156 66.078125 155.53125 66.207031 155.53125 66.207031 C 155.53125 66.207031 155.503906 66.082031 155.453125 65.84375 C 155.394531 65.605469 155.335938 65.242188 155.210938 64.8125 C 155.152344 64.597656 155.085938 64.359375 155.011719 64.097656 C 154.925781 63.847656 154.832031 63.574219 154.726562 63.277344 C 154.511719 62.699219 154.230469 62.058594 153.882812 61.394531 C 153.535156 60.730469 153.089844 60.050781 152.585938 59.371094 C 152.074219 58.691406 151.449219 58.046875 150.789062 57.40625 C 150.105469 56.789062 149.339844 56.222656 148.527344 55.699219 C 147.707031 55.195312 146.828125 54.761719 145.914062 54.402344 C 145 54.046875 144.058594 53.773438 143.105469 53.597656 C 142.15625 53.433594 141.207031 53.332031 140.285156 53.324219 C 139.367188 53.34375 138.46875 53.40625 137.628906 53.558594 C 136.796875 53.71875 136.007812 53.921875 135.300781 54.175781 C 134.59375 54.429688 133.957031 54.710938 133.40625 54.992188 C 133.132812 55.144531 132.875 55.277344 132.636719 55.410156 C 132.40625 55.550781 132.199219 55.679688 132.007812 55.800781 C 131.816406 55.914062 131.652344 56.027344 131.507812 56.128906 C 131.539062 56.339844 131.5625 56.554688 131.582031 56.769531 C 131.6875 57.507812 131.671875 58.246094 131.671875 58.988281 C 131.589844 60.457031 131.316406 61.886719 130.851562 63.203125 C 130.375 64.507812 129.773438 65.722656 129.019531 66.75 C 128.679688 67.28125 128.253906 67.734375 127.875 68.1875 C 127.464844 68.621094 127.042969 69.011719 126.644531 69.382812 C 126.203125 69.710938 125.816406 70.066406 125.394531 70.335938 C 124.964844 70.589844 124.578125 70.855469 124.1875 71.0625 C 123.789062 71.257812 123.421875 71.4375 123.082031 71.605469 C 122.722656 71.742188 122.390625 71.855469 122.09375 71.964844 C 121.945312 72.015625 121.808594 72.066406 121.675781 72.113281 C 121.542969 72.148438 121.417969 72.171875 121.296875 72.203125 C 121.0625 72.261719 120.863281 72.308594 120.699219 72.34375 C 120.378906 72.417969 120.203125 72.457031 120.203125 72.457031 " fill-opacity="1" fill-rule="nonzero"/><path fill="#f3ebdf" d="M 259.78125 97.808594 C 260.378906 97.675781 260.976562 97.558594 261.566406 97.417969 C 262.160156 97.261719 262.75 97.128906 263.332031 96.953125 C 264.5 96.621094 265.65625 96.25 266.78125 95.804688 C 267.335938 95.585938 267.898438 95.371094 268.433594 95.109375 C 268.46875 95.3125 268.507812 95.519531 268.546875 95.71875 C 268.023438 95.929688 267.484375 96.097656 266.949219 96.273438 C 265.785156 96.660156 264.59375 96.964844 263.398438 97.230469 C 262.203125 97.480469 260.988281 97.660156 259.78125 97.808594 M 276.984375 90.183594 C 276.984375 90.121094 276.980469 90.058594 276.976562 89.988281 C 276.960938 89.40625 276.976562 88.832031 277.019531 88.261719 C 277.257812 87.882812 277.476562 87.492188 277.707031 87.109375 C 277.933594 86.574219 278.207031 86.054688 278.390625 85.515625 L 278.636719 84.707031 C 278.722656 84.433594 278.820312 84.183594 278.855469 83.871094 L 279.011719 82.964844 L 279.085938 82.515625 L 279.097656 82.460938 L 279.097656 82.445312 L 279.105469 82.339844 L 279.121094 82.117188 C 279.164062 81.523438 279.222656 80.933594 279.210938 80.351562 C 279.214844 80.179688 279.21875 80.011719 279.214844 79.839844 C 279.644531 78.570312 280.039062 77.300781 280.316406 76.007812 C 280.359375 76.207031 280.398438 76.402344 280.433594 76.601562 C 280.628906 77.859375 280.734375 79.132812 280.65625 80.390625 C 280.648438 81.019531 280.570312 81.640625 280.503906 82.265625 L 280.476562 82.496094 L 280.464844 82.613281 L 280.453125 82.6875 L 280.449219 82.710938 L 280.347656 83.21875 L 280.167969 84.109375 C 280.125 84.402344 280 84.71875 279.902344 85.027344 L 279.59375 85.953125 C 279.359375 86.554688 279.050781 87.109375 278.78125 87.683594 C 278.445312 88.222656 278.101562 88.765625 277.734375 89.273438 C 277.476562 89.574219 277.238281 89.882812 276.984375 90.183594 M 246.46875 79.867188 C 246.46875 79.867188 246.488281 79.710938 246.527344 79.417969 C 246.578125 79.125 246.585938 78.675781 246.730469 78.136719 C 246.789062 77.859375 246.859375 77.554688 246.933594 77.222656 C 247.023438 76.898438 247.148438 76.550781 247.269531 76.175781 C 247.53125 75.429688 247.878906 74.605469 248.359375 73.75 C 248.578125 73.3125 248.878906 72.902344 249.152344 72.445312 C 249.464844 72.015625 249.792969 71.574219 250.160156 71.140625 C 250.890625 70.285156 251.757812 69.445312 252.734375 68.691406 C 253.734375 67.953125 254.8125 67.242188 256 66.699219 C 256.777344 66.34375 257.582031 66.042969 258.402344 65.785156 L 258.386719 65.609375 C 258.390625 64.636719 258.335938 63.597656 258.242188 62.59375 C 258.152344 61.582031 258.023438 60.570312 257.847656 59.570312 C 257.710938 58.8125 257.5625 58.054688 257.382812 57.304688 C 258.074219 57.621094 258.738281 57.996094 259.363281 58.4375 C 259.421875 58.71875 259.476562 59 259.523438 59.277344 C 259.710938 60.328125 259.855469 61.378906 259.960938 62.433594 C 260.035156 63.222656 260.078125 64.003906 260.101562 64.800781 C 261.089844 64.847656 262.074219 64.902344 263.0625 64.972656 C 263.261719 64.960938 263.460938 64.949219 263.660156 64.941406 C 263.746094 64.941406 263.835938 64.941406 263.921875 64.941406 C 264.140625 64.941406 264.363281 64.945312 264.578125 64.953125 C 264.929688 65.601562 265.246094 66.261719 265.527344 66.9375 C 264.597656 66.851562 263.664062 66.777344 262.730469 66.707031 C 261.855469 66.789062 260.988281 66.925781 260.128906 67.121094 C 258.953125 67.394531 257.804688 67.773438 256.710938 68.25 C 255.628906 68.742188 254.597656 69.300781 253.65625 69.9375 C 252.730469 70.605469 251.867188 71.292969 251.132812 72.035156 C 250.753906 72.402344 250.425781 72.789062 250.097656 73.15625 C 249.796875 73.550781 249.46875 73.90625 249.21875 74.289062 C 248.683594 75.042969 248.242188 75.769531 247.890625 76.445312 C 247.71875 76.785156 247.5625 77.105469 247.417969 77.402344 C 247.289062 77.703125 247.171875 77.980469 247.066406 78.234375 C 246.84375 78.742188 246.730469 79.160156 246.617188 79.4375 C 246.523438 79.71875 246.46875 79.867188 246.46875 79.867188 M 228.507812 52.652344 L 229.054688 51.191406 C 229.25 50.714844 229.519531 50.261719 229.75 49.789062 C 230.273438 48.875 230.875 48.015625 231.585938 47.230469 C 231.910156 46.808594 232.316406 46.472656 232.703125 46.105469 C 233.074219 45.726562 233.507812 45.421875 233.933594 45.105469 C 234.152344 44.949219 234.355469 44.773438 234.585938 44.640625 L 235.273438 44.238281 C 235.507812 44.109375 235.730469 43.957031 235.972656 43.84375 L 236.699219 43.519531 C 236.945312 43.410156 237.1875 43.296875 237.441406 43.199219 L 238.207031 42.957031 L 238.308594 42.925781 C 238.445312 43.199219 238.566406 43.476562 238.679688 43.746094 L 238.449219 43.808594 L 237.714844 43.996094 C 237.472656 44.074219 237.238281 44.171875 237 44.257812 L 236.292969 44.527344 C 236.054688 44.617188 235.835938 44.75 235.609375 44.859375 L 234.929688 45.207031 C 234.699219 45.316406 234.496094 45.480469 234.285156 45.609375 C 233.859375 45.890625 233.417969 46.160156 233.042969 46.503906 C 232.65625 46.835938 232.238281 47.140625 231.902344 47.523438 C 231.167969 48.238281 230.535156 49.0625 229.960938 49.914062 C 229.699219 50.355469 229.402344 50.777344 229.167969 51.242188 L 228.507812 52.652344 " fill-opacity="1" fill-rule="nonzero"/><path fill="#f4f3ea" d="M 268.546875 95.71875 C 268.507812 95.519531 268.46875 95.3125 268.433594 95.109375 C 268.441406 95.105469 268.445312 95.101562 268.449219 95.101562 C 268.996094 94.847656 269.546875 94.597656 270.066406 94.296875 L 270.859375 93.867188 L 271.621094 93.390625 C 271.871094 93.222656 272.128906 93.074219 272.375 92.898438 L 273.09375 92.371094 C 274.058594 91.675781 274.925781 90.855469 275.714844 89.984375 C 276.121094 89.5625 276.4375 89.0625 276.804688 88.605469 C 276.878906 88.492188 276.949219 88.378906 277.019531 88.261719 C 276.976562 88.832031 276.960938 89.40625 276.976562 89.988281 C 276.980469 90.058594 276.984375 90.121094 276.984375 90.183594 C 276.832031 90.367188 276.671875 90.542969 276.503906 90.710938 C 275.617188 91.605469 274.664062 92.425781 273.625 93.113281 L 272.851562 93.636719 C 272.585938 93.796875 272.3125 93.941406 272.039062 94.089844 L 271.226562 94.542969 L 270.386719 94.9375 C 269.832031 95.210938 269.261719 95.433594 268.683594 95.660156 C 268.640625 95.679688 268.59375 95.699219 268.546875 95.71875 M 279.214844 79.839844 C 279.207031 78.839844 279.097656 77.847656 278.925781 76.875 C 278.714844 75.738281 278.332031 74.652344 277.84375 73.628906 C 277.324219 72.617188 276.648438 71.703125 275.859375 70.894531 C 275.054688 70.101562 274.117188 69.453125 273.128906 68.878906 L 272.351562 68.511719 L 271.964844 68.324219 L 271.570312 68.175781 L 270.777344 67.878906 L 269.902344 67.625 L 269.460938 67.503906 L 269.351562 67.46875 L 269.332031 67.464844 L 269.335938 67.464844 L 269.332031 67.464844 L 269.277344 67.457031 L 269.070312 67.417969 L 268.222656 67.257812 C 267.632812 67.179688 267.046875 67.09375 266.449219 67.027344 C 266.144531 66.996094 265.835938 66.96875 265.527344 66.9375 C 265.246094 66.261719 264.929688 65.601562 264.578125 64.953125 C 265.566406 64.996094 266.535156 65.136719 267.46875 65.308594 C 267.773438 65.371094 268.074219 65.449219 268.371094 65.527344 L 268.5 65.542969 L 269.449219 65.726562 L 269.6875 65.78125 L 269.742188 65.789062 L 269.832031 65.8125 L 269.945312 65.84375 L 270.382812 65.96875 L 271.261719 66.230469 L 272.640625 66.753906 L 273.074219 66.964844 L 273.941406 67.390625 C 275.0625 68.035156 276.136719 68.789062 277.046875 69.730469 C 277.945312 70.683594 278.710938 71.753906 279.28125 72.925781 C 279.734375 73.917969 280.089844 74.953125 280.316406 76.007812 C 280.039062 77.300781 279.644531 78.570312 279.214844 79.839844 M 259.363281 58.4375 C 258.738281 57.996094 258.074219 57.621094 257.382812 57.304688 C 257.09375 56.085938 256.742188 54.882812 256.289062 53.71875 C 255.566406 51.851562 254.621094 50.054688 253.351562 48.539062 C 252.726562 47.789062 252.011719 47.058594 251.257812 46.496094 C 251.078125 46.339844 250.84375 46.195312 250.636719 46.046875 C 250.539062 45.980469 250.402344 45.875 250.335938 45.84375 L 250.011719 45.660156 C 249.570312 45.417969 249.140625 45.160156 248.695312 44.929688 L 247.320312 44.335938 C 246.851562 44.164062 246.363281 44.035156 245.890625 43.882812 C 244.921875 43.632812 243.9375 43.433594 242.933594 43.386719 C 242.6875 43.359375 242.441406 43.347656 242.199219 43.347656 C 241.941406 43.347656 241.683594 43.359375 241.425781 43.371094 C 241.179688 43.378906 240.925781 43.378906 240.675781 43.398438 L 239.925781 43.511719 L 239.179688 43.621094 L 238.679688 43.746094 C 238.566406 43.476562 238.445312 43.199219 238.308594 42.925781 L 238.976562 42.722656 L 239.765625 42.574219 L 240.558594 42.417969 C 240.828125 42.386719 241.097656 42.375 241.363281 42.351562 C 241.753906 42.320312 242.136719 42.289062 242.523438 42.289062 C 242.675781 42.289062 242.832031 42.292969 242.980469 42.304688 C 244.058594 42.3125 245.132812 42.476562 246.1875 42.707031 C 246.707031 42.859375 247.234375 42.976562 247.742188 43.152344 L 249.253906 43.746094 C 249.742188 43.976562 250.210938 44.246094 250.691406 44.492188 L 251.050781 44.679688 C 251.214844 44.773438 251.28125 44.828125 251.40625 44.90625 C 251.625 45.046875 251.835938 45.171875 252.0625 45.339844 C 252.992188 46.003906 253.765625 46.753906 254.492188 47.574219 C 255.925781 49.226562 256.976562 51.148438 257.789062 53.128906 C 258.484375 54.851562 259 56.628906 259.363281 58.4375 " fill-opacity="1" fill-rule="nonzero"/><path fill="#f3ebdf" d="M 231.503906 91.519531 C 231.503906 91.519531 231.394531 91.019531 231.222656 90.136719 C 231.179688 89.914062 231.132812 89.667969 231.082031 89.402344 C 231.011719 89.148438 230.933594 88.871094 230.851562 88.570312 C 230.773438 88.277344 230.683594 87.964844 230.597656 87.636719 C 230.507812 87.308594 230.367188 86.96875 230.25 86.617188 C 230.117188 86.265625 230 85.898438 229.847656 85.523438 C 229.6875 85.15625 229.515625 84.773438 229.34375 84.382812 C 229.253906 84.191406 229.167969 83.992188 229.082031 83.789062 C 228.976562 83.601562 228.867188 83.40625 228.761719 83.207031 C 228.535156 82.824219 228.335938 82.414062 228.105469 82.015625 C 227.59375 81.242188 227.101562 80.425781 226.488281 79.671875 C 225.933594 78.875 225.238281 78.171875 224.585938 77.4375 C 223.875 76.761719 223.191406 76.039062 222.421875 75.457031 C 221.683594 74.820312 220.886719 74.289062 220.132812 73.742188 C 219.742188 73.496094 219.339844 73.28125 218.964844 73.035156 C 218.769531 72.921875 218.585938 72.800781 218.394531 72.6875 C 218.203125 72.589844 218.011719 72.488281 217.816406 72.394531 C 217.433594 72.195312 217.0625 72.011719 216.703125 71.820312 C 216.339844 71.652344 215.972656 71.511719 215.628906 71.359375 C 215.285156 71.214844 214.957031 71.058594 214.628906 70.945312 C 214.304688 70.832031 213.996094 70.722656 213.703125 70.625 C 213.414062 70.519531 213.136719 70.425781 212.886719 70.335938 C 212.628906 70.253906 212.390625 70.199219 212.175781 70.140625 C 212.039062 70.101562 211.921875 70.070312 211.804688 70.035156 C 211.699219 70.125 211.582031 70.199219 211.480469 70.292969 C 210.765625 70.941406 210.097656 71.617188 209.519531 72.335938 C 208.96875 73.070312 208.460938 73.804688 208.0625 74.558594 C 207.667969 75.3125 207.34375 76.054688 207.105469 76.769531 C 206.867188 77.476562 206.695312 78.152344 206.574219 78.761719 C 206.523438 79.066406 206.472656 79.355469 206.429688 79.613281 C 206.394531 79.882812 206.367188 80.132812 206.34375 80.355469 C 206.289062 80.804688 206.292969 81.160156 206.269531 81.402344 C 206.257812 81.652344 206.25 81.777344 206.25 81.777344 C 206.25 81.777344 206.226562 81.652344 206.175781 81.414062 C 206.136719 81.167969 206.023438 80.816406 205.992188 80.363281 C 205.96875 80.128906 205.945312 79.871094 205.917969 79.59375 C 205.898438 79.316406 205.90625 79.019531 205.902344 78.691406 C 205.910156 78.046875 205.964844 77.300781 206.121094 76.511719 C 206.183594 76.113281 206.3125 75.707031 206.410156 75.28125 C 206.542969 74.863281 206.691406 74.433594 206.867188 74 C 207.21875 73.136719 207.683594 72.261719 208.265625 71.414062 C 208.867188 70.585938 209.535156 69.753906 210.335938 69.027344 C 211.140625 68.304688 212.015625 67.640625 212.953125 67.070312 C 213.910156 66.535156 214.914062 66.085938 215.941406 65.738281 C 216.964844 65.390625 218.019531 65.214844 219.03125 65.089844 C 219.484375 65.050781 219.929688 65.027344 220.359375 65.027344 C 220.917969 65.027344 221.460938 65.0625 221.980469 65.125 C 222.445312 65.179688 222.894531 65.261719 223.324219 65.347656 C 223.742188 65.472656 224.160156 65.550781 224.539062 65.691406 C 225.3125 65.9375 225.984375 66.25 226.558594 66.554688 C 226.839844 66.714844 227.113281 66.855469 227.34375 67.003906 C 227.574219 67.167969 227.789062 67.3125 227.980469 67.445312 C 228.367188 67.699219 228.617188 67.960938 228.8125 68.113281 C 228.996094 68.269531 229.097656 68.359375 229.097656 68.359375 C 229.097656 68.359375 228.976562 68.300781 228.757812 68.191406 C 228.535156 68.09375 228.21875 67.910156 227.796875 67.746094 C 227.589844 67.660156 227.363281 67.5625 227.117188 67.460938 C 226.863281 67.375 226.585938 67.273438 226.292969 67.171875 C 225.699219 66.980469 225.027344 66.808594 224.289062 66.667969 C 223.550781 66.53125 222.742188 66.460938 221.890625 66.4375 C 221.8125 66.433594 221.734375 66.433594 221.65625 66.433594 C 220.875 66.433594 220.0625 66.515625 219.234375 66.628906 C 218.324219 66.78125 217.402344 67.03125 216.488281 67.34375 C 215.585938 67.675781 214.695312 68.09375 213.847656 68.589844 C 213.242188 68.945312 212.667969 69.359375 212.117188 69.789062 L 212.234375 69.792969 C 212.460938 69.804688 212.710938 69.808594 212.988281 69.832031 C 213.257812 69.875 213.550781 69.917969 213.867188 69.96875 C 214.179688 70.015625 214.515625 70.070312 214.867188 70.125 C 215.21875 70.183594 215.578125 70.304688 215.957031 70.398438 C 216.339844 70.503906 216.738281 70.605469 217.140625 70.726562 C 217.539062 70.878906 217.949219 71.035156 218.371094 71.195312 C 218.585938 71.28125 218.792969 71.363281 219.011719 71.449219 C 219.222656 71.546875 219.4375 71.652344 219.644531 71.757812 C 220.074219 71.964844 220.507812 72.1875 220.945312 72.421875 C 221.773438 72.960938 222.691406 73.445312 223.480469 74.125 C 224.328125 74.742188 225.078125 75.492188 225.855469 76.214844 C 226.550781 77.015625 227.277344 77.796875 227.859375 78.65625 C 228.511719 79.484375 228.964844 80.414062 229.464844 81.261719 C 229.679688 81.714844 229.886719 82.15625 230.070312 82.59375 C 230.167969 82.8125 230.253906 83.03125 230.347656 83.242188 C 230.421875 83.460938 230.492188 83.683594 230.5625 83.902344 C 230.703125 84.328125 230.835938 84.746094 230.972656 85.148438 C 231.066406 85.566406 231.140625 85.96875 231.222656 86.351562 C 231.292969 86.742188 231.394531 87.101562 231.425781 87.460938 C 231.460938 87.816406 231.488281 88.160156 231.519531 88.480469 C 231.546875 88.796875 231.566406 89.089844 231.589844 89.367188 C 231.585938 89.632812 231.578125 89.882812 231.570312 90.109375 C 231.542969 91.007812 231.503906 91.519531 231.503906 91.519531 " fill-opacity="1" fill-rule="nonzero"/><path fill="#f3ebdf" d="M 264.316406 113.976562 C 264.316406 113.976562 264.246094 113.863281 264.121094 113.65625 C 263.984375 113.453125 263.8125 113.128906 263.550781 112.765625 C 263.421875 112.582031 263.28125 112.378906 263.121094 112.160156 C 262.953125 111.945312 262.777344 111.722656 262.582031 111.476562 C 262.1875 110.996094 261.710938 110.492188 261.160156 109.980469 C 260.613281 109.472656 259.96875 108.972656 259.261719 108.503906 C 258.550781 108.027344 257.753906 107.625 256.914062 107.242188 C 256.058594 106.886719 255.148438 106.609375 254.214844 106.386719 C 253.265625 106.179688 252.296875 106.058594 251.3125 106.023438 C 251.136719 106.019531 250.957031 106.015625 250.773438 106.015625 C 249.976562 106.015625 249.183594 106.074219 248.402344 106.195312 C 247.449219 106.355469 246.523438 106.574219 245.648438 106.875 C 244.789062 107.199219 243.964844 107.550781 243.226562 107.972656 C 242.484375 108.402344 241.816406 108.851562 241.230469 109.324219 C 240.652344 109.800781 240.140625 110.273438 239.710938 110.726562 C 239.503906 110.953125 239.308594 111.167969 239.128906 111.371094 C 238.957031 111.578125 238.804688 111.773438 238.660156 111.945312 C 238.371094 112.296875 238.1875 112.597656 238.035156 112.796875 C 237.894531 112.996094 237.816406 113.101562 237.816406 113.101562 C 237.816406 113.101562 237.867188 112.980469 237.953125 112.753906 C 238.050781 112.527344 238.144531 112.171875 238.359375 111.765625 C 238.464844 111.554688 238.582031 111.324219 238.707031 111.078125 C 238.839844 110.832031 239.011719 110.582031 239.179688 110.304688 C 239.539062 109.765625 239.980469 109.171875 240.539062 108.585938 C 240.804688 108.277344 241.128906 108.007812 241.441406 107.699219 C 241.777344 107.417969 242.132812 107.128906 242.511719 106.863281 C 243.277344 106.320312 244.140625 105.828125 245.085938 105.425781 C 246.035156 105.046875 247.046875 104.699219 248.117188 104.511719 C 249.085938 104.351562 250.085938 104.261719 251.085938 104.261719 C 251.183594 104.261719 251.277344 104.261719 251.371094 104.265625 C 252.46875 104.320312 253.558594 104.480469 254.609375 104.734375 C 255.660156 104.992188 256.648438 105.398438 257.570312 105.839844 C 258.484375 106.308594 259.3125 106.855469 260.042969 107.445312 C 260.402344 107.738281 260.738281 108.042969 261.058594 108.347656 C 261.347656 108.675781 261.652344 108.964844 261.898438 109.289062 C 262.414062 109.910156 262.820312 110.53125 263.136719 111.097656 C 263.292969 111.386719 263.441406 111.640625 263.5625 111.898438 C 263.671875 112.15625 263.769531 112.394531 263.863281 112.609375 C 264.054688 113.03125 264.121094 113.386719 264.203125 113.617188 C 264.277344 113.847656 264.316406 113.976562 264.316406 113.976562 " fill-opacity="1" fill-rule="nonzero"/></svg>